<?xml version="1.0" encoding="utf-8" standalone="no"?>
<!DOCTYPE svg PUBLIC "-//W3C//DTD SVG 1.1//EN"
  "http://www.w3.org/Graphics/SVG/1.1/DTD/svg11.dtd">
<!-- Created with matplotlib (http://matplotlib.org/) -->
<svg height="304pt" version="1.1" viewBox="0 0 422 304" width="422pt" xmlns="http://www.w3.org/2000/svg" xmlns:xlink="http://www.w3.org/1999/xlink">
 <defs>
  <style type="text/css">
*{stroke-linecap:butt;stroke-linejoin:round;}
  </style>
 </defs>
 <g id="figure_1">
  <g id="patch_1">
   <path d="M 0 304 
L 422 304 
L 422 0 
L 0 0 
z
" style="fill:#ffffff;"/>
  </g>
  <g id="axes_1">
   <g id="patch_2">
    <path d="M 50.542812 260.834844 
L 409.04 260.834844 
L 409.04 27.549375 
L 50.542812 27.549375 
z
" style="fill:#eaeaf2;"/>
   </g>
   <g id="matplotlib.axis_1">
    <g id="xtick_1">
     <g id="line2d_1">
      <path clip-path="url(#p2b8e198c40)" d="M 76.149754 260.834844 
L 76.149754 27.549375 
" style="fill:none;stroke:#ffffff;stroke-linecap:round;"/>
     </g>
     <g id="line2d_2"/>
     <g id="text_1">
      <!-- 200 -->
      <defs>
       <path d="M 50.34375 8.453125 
L 50.34375 0 
L 3.03125 0 
Q 2.9375 3.171875 4.046875 6.109375 
Q 5.859375 10.9375 9.828125 15.625 
Q 13.8125 20.3125 21.34375 26.46875 
Q 33.015625 36.03125 37.109375 41.625 
Q 41.21875 47.21875 41.21875 52.203125 
Q 41.21875 57.421875 37.46875 61 
Q 33.734375 64.59375 27.734375 64.59375 
Q 21.390625 64.59375 17.578125 60.78125 
Q 13.765625 56.984375 13.71875 50.25 
L 4.6875 51.171875 
Q 5.609375 61.28125 11.65625 66.578125 
Q 17.71875 71.875 27.9375 71.875 
Q 38.234375 71.875 44.234375 66.15625 
Q 50.25 60.453125 50.25 52 
Q 50.25 47.703125 48.484375 43.546875 
Q 46.734375 39.40625 42.65625 34.8125 
Q 38.578125 30.21875 29.109375 22.21875 
Q 21.1875 15.578125 18.9375 13.203125 
Q 16.703125 10.84375 15.234375 8.453125 
z
" id="ArialMT-32"/>
       <path d="M 4.15625 35.296875 
Q 4.15625 48 6.765625 55.734375 
Q 9.375 63.484375 14.515625 67.671875 
Q 19.671875 71.875 27.484375 71.875 
Q 33.25 71.875 37.59375 69.546875 
Q 41.9375 67.234375 44.765625 62.859375 
Q 47.609375 58.5 49.21875 52.21875 
Q 50.828125 45.953125 50.828125 35.296875 
Q 50.828125 22.703125 48.234375 14.96875 
Q 45.65625 7.234375 40.5 3 
Q 35.359375 -1.21875 27.484375 -1.21875 
Q 17.140625 -1.21875 11.234375 6.203125 
Q 4.15625 15.140625 4.15625 35.296875 
z
M 13.1875 35.296875 
Q 13.1875 17.671875 17.3125 11.828125 
Q 21.4375 6 27.484375 6 
Q 33.546875 6 37.671875 11.859375 
Q 41.796875 17.71875 41.796875 35.296875 
Q 41.796875 52.984375 37.671875 58.78125 
Q 33.546875 64.59375 27.390625 64.59375 
Q 21.34375 64.59375 17.71875 59.46875 
Q 13.1875 52.9375 13.1875 35.296875 
z
" id="ArialMT-30"/>
      </defs>
      <g style="fill:#262626;" transform="translate(67.808348 274.992656)scale(0.1 -0.1)">
       <use xlink:href="#ArialMT-32"/>
       <use x="55.615234" xlink:href="#ArialMT-30"/>
       <use x="111.230469" xlink:href="#ArialMT-30"/>
      </g>
     </g>
    </g>
    <g id="xtick_2">
     <g id="line2d_3">
      <path clip-path="url(#p2b8e198c40)" d="M 127.363638 260.834844 
L 127.363638 27.549375 
" style="fill:none;stroke:#ffffff;stroke-linecap:round;"/>
     </g>
     <g id="line2d_4"/>
     <g id="text_2">
      <!-- 400 -->
      <defs>
       <path d="M 32.328125 0 
L 32.328125 17.140625 
L 1.265625 17.140625 
L 1.265625 25.203125 
L 33.9375 71.578125 
L 41.109375 71.578125 
L 41.109375 25.203125 
L 50.78125 25.203125 
L 50.78125 17.140625 
L 41.109375 17.140625 
L 41.109375 0 
z
M 32.328125 25.203125 
L 32.328125 57.46875 
L 9.90625 25.203125 
z
" id="ArialMT-34"/>
      </defs>
      <g style="fill:#262626;" transform="translate(119.022232 274.992656)scale(0.1 -0.1)">
       <use xlink:href="#ArialMT-34"/>
       <use x="55.615234" xlink:href="#ArialMT-30"/>
       <use x="111.230469" xlink:href="#ArialMT-30"/>
      </g>
     </g>
    </g>
    <g id="xtick_3">
     <g id="line2d_5">
      <path clip-path="url(#p2b8e198c40)" d="M 178.577522 260.834844 
L 178.577522 27.549375 
" style="fill:none;stroke:#ffffff;stroke-linecap:round;"/>
     </g>
     <g id="line2d_6"/>
     <g id="text_3">
      <!-- 600 -->
      <defs>
       <path d="M 49.75 54.046875 
L 41.015625 53.375 
Q 39.84375 58.546875 37.703125 60.890625 
Q 34.125 64.65625 28.90625 64.65625 
Q 24.703125 64.65625 21.53125 62.3125 
Q 17.390625 59.28125 14.984375 53.46875 
Q 12.59375 47.65625 12.5 36.921875 
Q 15.671875 41.75 20.265625 44.09375 
Q 24.859375 46.4375 29.890625 46.4375 
Q 38.671875 46.4375 44.84375 39.96875 
Q 51.03125 33.5 51.03125 23.25 
Q 51.03125 16.5 48.125 10.71875 
Q 45.21875 4.9375 40.140625 1.859375 
Q 35.0625 -1.21875 28.609375 -1.21875 
Q 17.625 -1.21875 10.6875 6.859375 
Q 3.765625 14.9375 3.765625 33.5 
Q 3.765625 54.25 11.421875 63.671875 
Q 18.109375 71.875 29.4375 71.875 
Q 37.890625 71.875 43.28125 67.140625 
Q 48.6875 62.40625 49.75 54.046875 
z
M 13.875 23.1875 
Q 13.875 18.65625 15.796875 14.5 
Q 17.71875 10.359375 21.1875 8.171875 
Q 24.65625 6 28.46875 6 
Q 34.03125 6 38.03125 10.484375 
Q 42.046875 14.984375 42.046875 22.703125 
Q 42.046875 30.125 38.078125 34.390625 
Q 34.125 38.671875 28.125 38.671875 
Q 22.171875 38.671875 18.015625 34.390625 
Q 13.875 30.125 13.875 23.1875 
z
" id="ArialMT-36"/>
      </defs>
      <g style="fill:#262626;" transform="translate(170.236116 274.992656)scale(0.1 -0.1)">
       <use xlink:href="#ArialMT-36"/>
       <use x="55.615234" xlink:href="#ArialMT-30"/>
       <use x="111.230469" xlink:href="#ArialMT-30"/>
      </g>
     </g>
    </g>
    <g id="xtick_4">
     <g id="line2d_7">
      <path clip-path="url(#p2b8e198c40)" d="M 229.791406 260.834844 
L 229.791406 27.549375 
" style="fill:none;stroke:#ffffff;stroke-linecap:round;"/>
     </g>
     <g id="line2d_8"/>
     <g id="text_4">
      <!-- 800 -->
      <defs>
       <path d="M 17.671875 38.8125 
Q 12.203125 40.828125 9.5625 44.53125 
Q 6.9375 48.25 6.9375 53.421875 
Q 6.9375 61.234375 12.546875 66.546875 
Q 18.171875 71.875 27.484375 71.875 
Q 36.859375 71.875 42.578125 66.421875 
Q 48.296875 60.984375 48.296875 53.171875 
Q 48.296875 48.1875 45.671875 44.5 
Q 43.0625 40.828125 37.75 38.8125 
Q 44.34375 36.671875 47.78125 31.875 
Q 51.21875 27.09375 51.21875 20.453125 
Q 51.21875 11.28125 44.71875 5.03125 
Q 38.234375 -1.21875 27.640625 -1.21875 
Q 17.046875 -1.21875 10.546875 5.046875 
Q 4.046875 11.328125 4.046875 20.703125 
Q 4.046875 27.6875 7.59375 32.390625 
Q 11.140625 37.109375 17.671875 38.8125 
z
M 15.921875 53.71875 
Q 15.921875 48.640625 19.1875 45.40625 
Q 22.46875 42.1875 27.6875 42.1875 
Q 32.765625 42.1875 36.015625 45.375 
Q 39.265625 48.578125 39.265625 53.21875 
Q 39.265625 58.0625 35.90625 61.359375 
Q 32.5625 64.65625 27.59375 64.65625 
Q 22.5625 64.65625 19.234375 61.421875 
Q 15.921875 58.203125 15.921875 53.71875 
z
M 13.09375 20.65625 
Q 13.09375 16.890625 14.875 13.375 
Q 16.65625 9.859375 20.171875 7.921875 
Q 23.6875 6 27.734375 6 
Q 34.03125 6 38.125 10.046875 
Q 42.234375 14.109375 42.234375 20.359375 
Q 42.234375 26.703125 38.015625 30.859375 
Q 33.796875 35.015625 27.4375 35.015625 
Q 21.234375 35.015625 17.15625 30.90625 
Q 13.09375 26.8125 13.09375 20.65625 
z
" id="ArialMT-38"/>
      </defs>
      <g style="fill:#262626;" transform="translate(221.45 274.992656)scale(0.1 -0.1)">
       <use xlink:href="#ArialMT-38"/>
       <use x="55.615234" xlink:href="#ArialMT-30"/>
       <use x="111.230469" xlink:href="#ArialMT-30"/>
      </g>
     </g>
    </g>
    <g id="xtick_5">
     <g id="line2d_9">
      <path clip-path="url(#p2b8e198c40)" d="M 281.00529 260.834844 
L 281.00529 27.549375 
" style="fill:none;stroke:#ffffff;stroke-linecap:round;"/>
     </g>
     <g id="line2d_10"/>
     <g id="text_5">
      <!-- 1000 -->
      <defs>
       <path d="M 37.25 0 
L 28.46875 0 
L 28.46875 56 
Q 25.296875 52.984375 20.140625 49.953125 
Q 14.984375 46.921875 10.890625 45.40625 
L 10.890625 53.90625 
Q 18.265625 57.375 23.78125 62.296875 
Q 29.296875 67.234375 31.59375 71.875 
L 37.25 71.875 
z
" id="ArialMT-31"/>
      </defs>
      <g style="fill:#262626;" transform="translate(269.883415 274.992656)scale(0.1 -0.1)">
       <use xlink:href="#ArialMT-31"/>
       <use x="55.615234" xlink:href="#ArialMT-30"/>
       <use x="111.230469" xlink:href="#ArialMT-30"/>
       <use x="166.845703" xlink:href="#ArialMT-30"/>
      </g>
     </g>
    </g>
    <g id="xtick_6">
     <g id="line2d_11">
      <path clip-path="url(#p2b8e198c40)" d="M 332.219174 260.834844 
L 332.219174 27.549375 
" style="fill:none;stroke:#ffffff;stroke-linecap:round;"/>
     </g>
     <g id="line2d_12"/>
     <g id="text_6">
      <!-- 1200 -->
      <g style="fill:#262626;" transform="translate(321.097299 274.992656)scale(0.1 -0.1)">
       <use xlink:href="#ArialMT-31"/>
       <use x="55.615234" xlink:href="#ArialMT-32"/>
       <use x="111.230469" xlink:href="#ArialMT-30"/>
       <use x="166.845703" xlink:href="#ArialMT-30"/>
      </g>
     </g>
    </g>
    <g id="xtick_7">
     <g id="line2d_13">
      <path clip-path="url(#p2b8e198c40)" d="M 383.433058 260.834844 
L 383.433058 27.549375 
" style="fill:none;stroke:#ffffff;stroke-linecap:round;"/>
     </g>
     <g id="line2d_14"/>
     <g id="text_7">
      <!-- 1400 -->
      <g style="fill:#262626;" transform="translate(372.311183 274.992656)scale(0.1 -0.1)">
       <use xlink:href="#ArialMT-31"/>
       <use x="55.615234" xlink:href="#ArialMT-34"/>
       <use x="111.230469" xlink:href="#ArialMT-30"/>
       <use x="166.845703" xlink:href="#ArialMT-30"/>
      </g>
     </g>
    </g>
    <g id="text_8">
     <!-- 1 Bedroom Fair Market Rent -->
     <defs>
      <path id="ArialMT-20"/>
      <path d="M 7.328125 0 
L 7.328125 71.578125 
L 34.1875 71.578125 
Q 42.390625 71.578125 47.34375 69.40625 
Q 52.296875 67.234375 55.09375 62.71875 
Q 57.90625 58.203125 57.90625 53.265625 
Q 57.90625 48.6875 55.421875 44.625 
Q 52.9375 40.578125 47.90625 38.09375 
Q 54.390625 36.1875 57.875 31.59375 
Q 61.375 27 61.375 20.75 
Q 61.375 15.71875 59.25 11.390625 
Q 57.125 7.078125 54 4.734375 
Q 50.875 2.390625 46.15625 1.1875 
Q 41.453125 0 34.625 0 
z
M 16.796875 41.5 
L 32.28125 41.5 
Q 38.578125 41.5 41.3125 42.328125 
Q 44.921875 43.40625 46.75 45.890625 
Q 48.578125 48.390625 48.578125 52.15625 
Q 48.578125 55.71875 46.875 58.421875 
Q 45.171875 61.140625 41.984375 62.140625 
Q 38.8125 63.140625 31.109375 63.140625 
L 16.796875 63.140625 
z
M 16.796875 8.453125 
L 34.625 8.453125 
Q 39.203125 8.453125 41.0625 8.796875 
Q 44.34375 9.375 46.53125 10.734375 
Q 48.734375 12.109375 50.140625 14.71875 
Q 51.5625 17.328125 51.5625 20.75 
Q 51.5625 24.75 49.515625 27.703125 
Q 47.46875 30.671875 43.828125 31.859375 
Q 40.1875 33.0625 33.34375 33.0625 
L 16.796875 33.0625 
z
" id="ArialMT-42"/>
      <path d="M 42.09375 16.703125 
L 51.171875 15.578125 
Q 49.03125 7.625 43.21875 3.21875 
Q 37.40625 -1.171875 28.375 -1.171875 
Q 17 -1.171875 10.328125 5.828125 
Q 3.65625 12.84375 3.65625 25.484375 
Q 3.65625 38.578125 10.390625 45.796875 
Q 17.140625 53.03125 27.875 53.03125 
Q 38.28125 53.03125 44.875 45.953125 
Q 51.46875 38.875 51.46875 26.03125 
Q 51.46875 25.25 51.421875 23.6875 
L 12.75 23.6875 
Q 13.234375 15.140625 17.578125 10.59375 
Q 21.921875 6.0625 28.421875 6.0625 
Q 33.25 6.0625 36.671875 8.59375 
Q 40.09375 11.140625 42.09375 16.703125 
z
M 13.234375 30.90625 
L 42.1875 30.90625 
Q 41.609375 37.453125 38.875 40.71875 
Q 34.671875 45.796875 27.984375 45.796875 
Q 21.921875 45.796875 17.796875 41.75 
Q 13.671875 37.703125 13.234375 30.90625 
z
" id="ArialMT-65"/>
      <path d="M 40.234375 0 
L 40.234375 6.546875 
Q 35.296875 -1.171875 25.734375 -1.171875 
Q 19.53125 -1.171875 14.328125 2.25 
Q 9.125 5.671875 6.265625 11.796875 
Q 3.421875 17.921875 3.421875 25.875 
Q 3.421875 33.640625 6 39.96875 
Q 8.59375 46.296875 13.765625 49.65625 
Q 18.953125 53.03125 25.34375 53.03125 
Q 30.03125 53.03125 33.6875 51.046875 
Q 37.359375 49.078125 39.65625 45.90625 
L 39.65625 71.578125 
L 48.390625 71.578125 
L 48.390625 0 
z
M 12.453125 25.875 
Q 12.453125 15.921875 16.640625 10.984375 
Q 20.84375 6.0625 26.5625 6.0625 
Q 32.328125 6.0625 36.34375 10.765625 
Q 40.375 15.484375 40.375 25.140625 
Q 40.375 35.796875 36.265625 40.765625 
Q 32.171875 45.75 26.171875 45.75 
Q 20.3125 45.75 16.375 40.96875 
Q 12.453125 36.1875 12.453125 25.875 
z
" id="ArialMT-64"/>
      <path d="M 6.5 0 
L 6.5 51.859375 
L 14.40625 51.859375 
L 14.40625 44 
Q 17.4375 49.515625 20 51.265625 
Q 22.5625 53.03125 25.640625 53.03125 
Q 30.078125 53.03125 34.671875 50.203125 
L 31.640625 42.046875 
Q 28.421875 43.953125 25.203125 43.953125 
Q 22.3125 43.953125 20.015625 42.21875 
Q 17.71875 40.484375 16.75 37.40625 
Q 15.28125 32.71875 15.28125 27.15625 
L 15.28125 0 
z
" id="ArialMT-72"/>
      <path d="M 3.328125 25.921875 
Q 3.328125 40.328125 11.328125 47.265625 
Q 18.015625 53.03125 27.640625 53.03125 
Q 38.328125 53.03125 45.109375 46.015625 
Q 51.90625 39.015625 51.90625 26.65625 
Q 51.90625 16.65625 48.90625 10.90625 
Q 45.90625 5.171875 40.15625 2 
Q 34.421875 -1.171875 27.640625 -1.171875 
Q 16.75 -1.171875 10.03125 5.8125 
Q 3.328125 12.796875 3.328125 25.921875 
z
M 12.359375 25.921875 
Q 12.359375 15.96875 16.703125 11.015625 
Q 21.046875 6.0625 27.640625 6.0625 
Q 34.1875 6.0625 38.53125 11.03125 
Q 42.875 16.015625 42.875 26.21875 
Q 42.875 35.84375 38.5 40.796875 
Q 34.125 45.75 27.640625 45.75 
Q 21.046875 45.75 16.703125 40.8125 
Q 12.359375 35.890625 12.359375 25.921875 
z
" id="ArialMT-6f"/>
      <path d="M 6.59375 0 
L 6.59375 51.859375 
L 14.453125 51.859375 
L 14.453125 44.578125 
Q 16.890625 48.390625 20.9375 50.703125 
Q 25 53.03125 30.171875 53.03125 
Q 35.9375 53.03125 39.625 50.640625 
Q 43.3125 48.25 44.828125 43.953125 
Q 50.984375 53.03125 60.84375 53.03125 
Q 68.5625 53.03125 72.703125 48.75 
Q 76.859375 44.484375 76.859375 35.59375 
L 76.859375 0 
L 68.109375 0 
L 68.109375 32.671875 
Q 68.109375 37.9375 67.25 40.25 
Q 66.40625 42.578125 64.15625 43.984375 
Q 61.921875 45.40625 58.890625 45.40625 
Q 53.421875 45.40625 49.796875 41.765625 
Q 46.1875 38.140625 46.1875 30.125 
L 46.1875 0 
L 37.40625 0 
L 37.40625 33.6875 
Q 37.40625 39.546875 35.25 42.46875 
Q 33.109375 45.40625 28.21875 45.40625 
Q 24.515625 45.40625 21.359375 43.453125 
Q 18.21875 41.5 16.796875 37.734375 
Q 15.375 33.984375 15.375 26.90625 
L 15.375 0 
z
" id="ArialMT-6d"/>
      <path d="M 8.203125 0 
L 8.203125 71.578125 
L 56.5 71.578125 
L 56.5 63.140625 
L 17.671875 63.140625 
L 17.671875 40.96875 
L 51.265625 40.96875 
L 51.265625 32.515625 
L 17.671875 32.515625 
L 17.671875 0 
z
" id="ArialMT-46"/>
      <path d="M 40.4375 6.390625 
Q 35.546875 2.25 31.03125 0.53125 
Q 26.515625 -1.171875 21.34375 -1.171875 
Q 12.796875 -1.171875 8.203125 3 
Q 3.609375 7.171875 3.609375 13.671875 
Q 3.609375 17.484375 5.34375 20.625 
Q 7.078125 23.78125 9.890625 25.6875 
Q 12.703125 27.59375 16.21875 28.5625 
Q 18.796875 29.25 24.03125 29.890625 
Q 34.671875 31.15625 39.703125 32.90625 
Q 39.75 34.71875 39.75 35.203125 
Q 39.75 40.578125 37.25 42.78125 
Q 33.890625 45.75 27.25 45.75 
Q 21.046875 45.75 18.09375 43.578125 
Q 15.140625 41.40625 13.71875 35.890625 
L 5.125 37.0625 
Q 6.296875 42.578125 8.984375 45.96875 
Q 11.671875 49.359375 16.75 51.1875 
Q 21.828125 53.03125 28.515625 53.03125 
Q 35.15625 53.03125 39.296875 51.46875 
Q 43.453125 49.90625 45.40625 47.53125 
Q 47.359375 45.171875 48.140625 41.546875 
Q 48.578125 39.3125 48.578125 33.453125 
L 48.578125 21.734375 
Q 48.578125 9.46875 49.140625 6.21875 
Q 49.703125 2.984375 51.375 0 
L 42.1875 0 
Q 40.828125 2.734375 40.4375 6.390625 
z
M 39.703125 26.03125 
Q 34.90625 24.078125 25.34375 22.703125 
Q 19.921875 21.921875 17.671875 20.9375 
Q 15.4375 19.96875 14.203125 18.09375 
Q 12.984375 16.21875 12.984375 13.921875 
Q 12.984375 10.40625 15.640625 8.0625 
Q 18.3125 5.71875 23.4375 5.71875 
Q 28.515625 5.71875 32.46875 7.9375 
Q 36.421875 10.15625 38.28125 14.015625 
Q 39.703125 17 39.703125 22.796875 
z
" id="ArialMT-61"/>
      <path d="M 6.640625 61.46875 
L 6.640625 71.578125 
L 15.4375 71.578125 
L 15.4375 61.46875 
z
M 6.640625 0 
L 6.640625 51.859375 
L 15.4375 51.859375 
L 15.4375 0 
z
" id="ArialMT-69"/>
      <path d="M 7.421875 0 
L 7.421875 71.578125 
L 21.6875 71.578125 
L 38.625 20.90625 
Q 40.96875 13.8125 42.046875 10.296875 
Q 43.265625 14.203125 45.84375 21.78125 
L 62.984375 71.578125 
L 75.734375 71.578125 
L 75.734375 0 
L 66.609375 0 
L 66.609375 59.90625 
L 45.796875 0 
L 37.25 0 
L 16.546875 60.9375 
L 16.546875 0 
z
" id="ArialMT-4d"/>
      <path d="M 6.640625 0 
L 6.640625 71.578125 
L 15.4375 71.578125 
L 15.4375 30.765625 
L 36.234375 51.859375 
L 47.609375 51.859375 
L 27.78125 32.625 
L 49.609375 0 
L 38.765625 0 
L 21.625 26.515625 
L 15.4375 20.5625 
L 15.4375 0 
z
" id="ArialMT-6b"/>
      <path d="M 25.78125 7.859375 
L 27.046875 0.09375 
Q 23.34375 -0.6875 20.40625 -0.6875 
Q 15.625 -0.6875 12.984375 0.828125 
Q 10.359375 2.34375 9.28125 4.8125 
Q 8.203125 7.28125 8.203125 15.1875 
L 8.203125 45.015625 
L 1.765625 45.015625 
L 1.765625 51.859375 
L 8.203125 51.859375 
L 8.203125 64.703125 
L 16.9375 69.96875 
L 16.9375 51.859375 
L 25.78125 51.859375 
L 25.78125 45.015625 
L 16.9375 45.015625 
L 16.9375 14.703125 
Q 16.9375 10.9375 17.40625 9.859375 
Q 17.875 8.796875 18.921875 8.15625 
Q 19.96875 7.515625 21.921875 7.515625 
Q 23.390625 7.515625 25.78125 7.859375 
z
" id="ArialMT-74"/>
      <path d="M 7.859375 0 
L 7.859375 71.578125 
L 39.59375 71.578125 
Q 49.171875 71.578125 54.140625 69.640625 
Q 59.125 67.71875 62.109375 62.828125 
Q 65.09375 57.953125 65.09375 52.046875 
Q 65.09375 44.4375 60.15625 39.203125 
Q 55.21875 33.984375 44.921875 32.5625 
Q 48.6875 30.765625 50.640625 29 
Q 54.78125 25.203125 58.5 19.484375 
L 70.953125 0 
L 59.03125 0 
L 49.5625 14.890625 
Q 45.40625 21.34375 42.71875 24.75 
Q 40.046875 28.171875 37.921875 29.53125 
Q 35.796875 30.90625 33.59375 31.453125 
Q 31.984375 31.78125 28.328125 31.78125 
L 17.328125 31.78125 
L 17.328125 0 
z
M 17.328125 39.984375 
L 37.703125 39.984375 
Q 44.1875 39.984375 47.84375 41.328125 
Q 51.515625 42.671875 53.421875 45.625 
Q 55.328125 48.578125 55.328125 52.046875 
Q 55.328125 57.125 51.640625 60.390625 
Q 47.953125 63.671875 39.984375 63.671875 
L 17.328125 63.671875 
z
" id="ArialMT-52"/>
      <path d="M 6.59375 0 
L 6.59375 51.859375 
L 14.5 51.859375 
L 14.5 44.484375 
Q 20.21875 53.03125 31 53.03125 
Q 35.6875 53.03125 39.625 51.34375 
Q 43.5625 49.65625 45.515625 46.921875 
Q 47.46875 44.1875 48.25 40.4375 
Q 48.734375 37.984375 48.734375 31.890625 
L 48.734375 0 
L 39.9375 0 
L 39.9375 31.546875 
Q 39.9375 36.921875 38.90625 39.578125 
Q 37.890625 42.234375 35.28125 43.8125 
Q 32.671875 45.40625 29.15625 45.40625 
Q 23.53125 45.40625 19.453125 41.84375 
Q 15.375 38.28125 15.375 28.328125 
L 15.375 0 
z
" id="ArialMT-6e"/>
     </defs>
     <g style="fill:#262626;" transform="translate(160.409766 288.85375)scale(0.11 -0.11)">
      <use xlink:href="#ArialMT-31"/>
      <use x="55.615234" xlink:href="#ArialMT-20"/>
      <use x="83.398438" xlink:href="#ArialMT-42"/>
      <use x="150.097656" xlink:href="#ArialMT-65"/>
      <use x="205.712891" xlink:href="#ArialMT-64"/>
      <use x="261.328125" xlink:href="#ArialMT-72"/>
      <use x="294.628906" xlink:href="#ArialMT-6f"/>
      <use x="350.244141" xlink:href="#ArialMT-6f"/>
      <use x="405.859375" xlink:href="#ArialMT-6d"/>
      <use x="489.160156" xlink:href="#ArialMT-20"/>
      <use x="516.943359" xlink:href="#ArialMT-46"/>
      <use x="578.027344" xlink:href="#ArialMT-61"/>
      <use x="633.642578" xlink:href="#ArialMT-69"/>
      <use x="655.859375" xlink:href="#ArialMT-72"/>
      <use x="689.160156" xlink:href="#ArialMT-20"/>
      <use x="716.943359" xlink:href="#ArialMT-4d"/>
      <use x="800.244141" xlink:href="#ArialMT-61"/>
      <use x="855.859375" xlink:href="#ArialMT-72"/>
      <use x="889.160156" xlink:href="#ArialMT-6b"/>
      <use x="939.160156" xlink:href="#ArialMT-65"/>
      <use x="994.775391" xlink:href="#ArialMT-74"/>
      <use x="1022.558594" xlink:href="#ArialMT-20"/>
      <use x="1050.341797" xlink:href="#ArialMT-52"/>
      <use x="1122.558594" xlink:href="#ArialMT-65"/>
      <use x="1178.173828" xlink:href="#ArialMT-6e"/>
      <use x="1233.789062" xlink:href="#ArialMT-74"/>
     </g>
    </g>
   </g>
   <g id="matplotlib.axis_2">
    <g id="ytick_1">
     <g id="line2d_15">
      <path clip-path="url(#p2b8e198c40)" d="M 50.542812 260.834844 
L 409.04 260.834844 
" style="fill:none;stroke:#ffffff;stroke-linecap:round;"/>
     </g>
     <g id="line2d_16"/>
     <g id="text_9">
      <!-- 0.0000 -->
      <defs>
       <path d="M 9.078125 0 
L 9.078125 10.015625 
L 19.09375 10.015625 
L 19.09375 0 
z
" id="ArialMT-2e"/>
      </defs>
      <g style="fill:#262626;" transform="translate(12.96 264.41375)scale(0.1 -0.1)">
       <use xlink:href="#ArialMT-30"/>
       <use x="55.615234" xlink:href="#ArialMT-2e"/>
       <use x="83.398438" xlink:href="#ArialMT-30"/>
       <use x="139.013672" xlink:href="#ArialMT-30"/>
       <use x="194.628906" xlink:href="#ArialMT-30"/>
       <use x="250.244141" xlink:href="#ArialMT-30"/>
      </g>
     </g>
    </g>
    <g id="ytick_2">
     <g id="line2d_17">
      <path clip-path="url(#p2b8e198c40)" d="M 50.542812 227.872418 
L 409.04 227.872418 
" style="fill:none;stroke:#ffffff;stroke-linecap:round;"/>
     </g>
     <g id="line2d_18"/>
     <g id="text_10">
      <!-- 0.0005 -->
      <defs>
       <path d="M 4.15625 18.75 
L 13.375 19.53125 
Q 14.40625 12.796875 18.140625 9.390625 
Q 21.875 6 27.15625 6 
Q 33.5 6 37.890625 10.78125 
Q 42.28125 15.578125 42.28125 23.484375 
Q 42.28125 31 38.0625 35.34375 
Q 33.84375 39.703125 27 39.703125 
Q 22.75 39.703125 19.328125 37.765625 
Q 15.921875 35.84375 13.96875 32.765625 
L 5.71875 33.84375 
L 12.640625 70.609375 
L 48.25 70.609375 
L 48.25 62.203125 
L 19.671875 62.203125 
L 15.828125 42.96875 
Q 22.265625 47.46875 29.34375 47.46875 
Q 38.71875 47.46875 45.15625 40.96875 
Q 51.609375 34.46875 51.609375 24.265625 
Q 51.609375 14.546875 45.953125 7.46875 
Q 39.0625 -1.21875 27.15625 -1.21875 
Q 17.390625 -1.21875 11.203125 4.25 
Q 5.03125 9.71875 4.15625 18.75 
z
" id="ArialMT-35"/>
      </defs>
      <g style="fill:#262626;" transform="translate(12.96 231.451324)scale(0.1 -0.1)">
       <use xlink:href="#ArialMT-30"/>
       <use x="55.615234" xlink:href="#ArialMT-2e"/>
       <use x="83.398438" xlink:href="#ArialMT-30"/>
       <use x="139.013672" xlink:href="#ArialMT-30"/>
       <use x="194.628906" xlink:href="#ArialMT-30"/>
       <use x="250.244141" xlink:href="#ArialMT-35"/>
      </g>
     </g>
    </g>
    <g id="ytick_3">
     <g id="line2d_19">
      <path clip-path="url(#p2b8e198c40)" d="M 50.542812 194.909992 
L 409.04 194.909992 
" style="fill:none;stroke:#ffffff;stroke-linecap:round;"/>
     </g>
     <g id="line2d_20"/>
     <g id="text_11">
      <!-- 0.0010 -->
      <g style="fill:#262626;" transform="translate(12.96 198.488898)scale(0.1 -0.1)">
       <use xlink:href="#ArialMT-30"/>
       <use x="55.615234" xlink:href="#ArialMT-2e"/>
       <use x="83.398438" xlink:href="#ArialMT-30"/>
       <use x="139.013672" xlink:href="#ArialMT-30"/>
       <use x="194.628906" xlink:href="#ArialMT-31"/>
       <use x="250.244141" xlink:href="#ArialMT-30"/>
      </g>
     </g>
    </g>
    <g id="ytick_4">
     <g id="line2d_21">
      <path clip-path="url(#p2b8e198c40)" d="M 50.542812 161.947565 
L 409.04 161.947565 
" style="fill:none;stroke:#ffffff;stroke-linecap:round;"/>
     </g>
     <g id="line2d_22"/>
     <g id="text_12">
      <!-- 0.0015 -->
      <g style="fill:#262626;" transform="translate(12.96 165.526472)scale(0.1 -0.1)">
       <use xlink:href="#ArialMT-30"/>
       <use x="55.615234" xlink:href="#ArialMT-2e"/>
       <use x="83.398438" xlink:href="#ArialMT-30"/>
       <use x="139.013672" xlink:href="#ArialMT-30"/>
       <use x="194.628906" xlink:href="#ArialMT-31"/>
       <use x="250.244141" xlink:href="#ArialMT-35"/>
      </g>
     </g>
    </g>
    <g id="ytick_5">
     <g id="line2d_23">
      <path clip-path="url(#p2b8e198c40)" d="M 50.542812 128.985139 
L 409.04 128.985139 
" style="fill:none;stroke:#ffffff;stroke-linecap:round;"/>
     </g>
     <g id="line2d_24"/>
     <g id="text_13">
      <!-- 0.0020 -->
      <g style="fill:#262626;" transform="translate(12.96 132.564046)scale(0.1 -0.1)">
       <use xlink:href="#ArialMT-30"/>
       <use x="55.615234" xlink:href="#ArialMT-2e"/>
       <use x="83.398438" xlink:href="#ArialMT-30"/>
       <use x="139.013672" xlink:href="#ArialMT-30"/>
       <use x="194.628906" xlink:href="#ArialMT-32"/>
       <use x="250.244141" xlink:href="#ArialMT-30"/>
      </g>
     </g>
    </g>
    <g id="ytick_6">
     <g id="line2d_25">
      <path clip-path="url(#p2b8e198c40)" d="M 50.542812 96.022713 
L 409.04 96.022713 
" style="fill:none;stroke:#ffffff;stroke-linecap:round;"/>
     </g>
     <g id="line2d_26"/>
     <g id="text_14">
      <!-- 0.0025 -->
      <g style="fill:#262626;" transform="translate(12.96 99.60162)scale(0.1 -0.1)">
       <use xlink:href="#ArialMT-30"/>
       <use x="55.615234" xlink:href="#ArialMT-2e"/>
       <use x="83.398438" xlink:href="#ArialMT-30"/>
       <use x="139.013672" xlink:href="#ArialMT-30"/>
       <use x="194.628906" xlink:href="#ArialMT-32"/>
       <use x="250.244141" xlink:href="#ArialMT-35"/>
      </g>
     </g>
    </g>
    <g id="ytick_7">
     <g id="line2d_27">
      <path clip-path="url(#p2b8e198c40)" d="M 50.542812 63.060287 
L 409.04 63.060287 
" style="fill:none;stroke:#ffffff;stroke-linecap:round;"/>
     </g>
     <g id="line2d_28"/>
     <g id="text_15">
      <!-- 0.0030 -->
      <defs>
       <path d="M 4.203125 18.890625 
L 12.984375 20.0625 
Q 14.5 12.59375 18.140625 9.296875 
Q 21.78125 6 27 6 
Q 33.203125 6 37.46875 10.296875 
Q 41.75 14.59375 41.75 20.953125 
Q 41.75 27 37.796875 30.921875 
Q 33.84375 34.859375 27.734375 34.859375 
Q 25.25 34.859375 21.53125 33.890625 
L 22.515625 41.609375 
Q 23.390625 41.5 23.921875 41.5 
Q 29.546875 41.5 34.03125 44.421875 
Q 38.53125 47.359375 38.53125 53.46875 
Q 38.53125 58.296875 35.25 61.46875 
Q 31.984375 64.65625 26.8125 64.65625 
Q 21.6875 64.65625 18.265625 61.421875 
Q 14.84375 58.203125 13.875 51.765625 
L 5.078125 53.328125 
Q 6.6875 62.15625 12.390625 67.015625 
Q 18.109375 71.875 26.609375 71.875 
Q 32.46875 71.875 37.390625 69.359375 
Q 42.328125 66.84375 44.9375 62.5 
Q 47.5625 58.15625 47.5625 53.265625 
Q 47.5625 48.640625 45.0625 44.828125 
Q 42.578125 41.015625 37.703125 38.765625 
Q 44.046875 37.3125 47.5625 32.6875 
Q 51.078125 28.078125 51.078125 21.140625 
Q 51.078125 11.765625 44.234375 5.25 
Q 37.40625 -1.265625 26.953125 -1.265625 
Q 17.53125 -1.265625 11.296875 4.34375 
Q 5.078125 9.96875 4.203125 18.890625 
z
" id="ArialMT-33"/>
      </defs>
      <g style="fill:#262626;" transform="translate(12.96 66.639193)scale(0.1 -0.1)">
       <use xlink:href="#ArialMT-30"/>
       <use x="55.615234" xlink:href="#ArialMT-2e"/>
       <use x="83.398438" xlink:href="#ArialMT-30"/>
       <use x="139.013672" xlink:href="#ArialMT-30"/>
       <use x="194.628906" xlink:href="#ArialMT-33"/>
       <use x="250.244141" xlink:href="#ArialMT-30"/>
      </g>
     </g>
    </g>
    <g id="ytick_8">
     <g id="line2d_29">
      <path clip-path="url(#p2b8e198c40)" d="M 50.542812 30.097861 
L 409.04 30.097861 
" style="fill:none;stroke:#ffffff;stroke-linecap:round;"/>
     </g>
     <g id="line2d_30"/>
     <g id="text_16">
      <!-- 0.0035 -->
      <g style="fill:#262626;" transform="translate(12.96 33.676767)scale(0.1 -0.1)">
       <use xlink:href="#ArialMT-30"/>
       <use x="55.615234" xlink:href="#ArialMT-2e"/>
       <use x="83.398438" xlink:href="#ArialMT-30"/>
       <use x="139.013672" xlink:href="#ArialMT-30"/>
       <use x="194.628906" xlink:href="#ArialMT-33"/>
       <use x="250.244141" xlink:href="#ArialMT-35"/>
      </g>
     </g>
    </g>
   </g>
   <g id="patch_3">
    <path clip-path="url(#p2b8e198c40)" d="M 104.829529 260.834844 
L 116.030006 260.834844 
L 116.030006 248.825296 
L 104.829529 248.825296 
z
" style="fill:#003fff;opacity:0.4;"/>
   </g>
   <g id="patch_4">
    <path clip-path="url(#p2b8e198c40)" d="M 116.030006 260.834844 
L 127.230482 260.834844 
L 127.230482 258.938599 
L 116.030006 258.938599 
z
" style="fill:#003fff;opacity:0.4;"/>
   </g>
   <g id="patch_5">
    <path clip-path="url(#p2b8e198c40)" d="M 127.230482 260.834844 
L 138.430959 260.834844 
L 138.430959 250.089459 
L 127.230482 250.089459 
z
" style="fill:#003fff;opacity:0.4;"/>
   </g>
   <g id="patch_6">
    <path clip-path="url(#p2b8e198c40)" d="M 138.430959 260.834844 
L 149.631435 260.834844 
L 149.631435 216.905182 
L 138.430959 216.905182 
z
" style="fill:#003fff;opacity:0.4;"/>
   </g>
   <g id="patch_7">
    <path clip-path="url(#p2b8e198c40)" d="M 149.631435 260.834844 
L 160.831912 260.834844 
L 160.831912 49.403592 
L 149.631435 49.403592 
z
" style="fill:#003fff;opacity:0.4;"/>
   </g>
   <g id="patch_8">
    <path clip-path="url(#p2b8e198c40)" d="M 160.831912 260.834844 
L 172.032388 260.834844 
L 172.032388 62.677303 
L 160.831912 62.677303 
z
" style="fill:#003fff;opacity:0.4;"/>
   </g>
   <g id="patch_9">
    <path clip-path="url(#p2b8e198c40)" d="M 172.032388 260.834844 
L 183.232864 260.834844 
L 183.232864 38.658207 
L 172.032388 38.658207 
z
" style="fill:#003fff;opacity:0.4;"/>
   </g>
   <g id="patch_10">
    <path clip-path="url(#p2b8e198c40)" d="M 183.232864 260.834844 
L 194.433341 260.834844 
L 194.433341 111.347576 
L 183.232864 111.347576 
z
" style="fill:#003fff;opacity:0.4;"/>
   </g>
   <g id="patch_11">
    <path clip-path="url(#p2b8e198c40)" d="M 194.433341 260.834844 
L 205.633817 260.834844 
L 205.633817 141.371446 
L 194.433341 141.371446 
z
" style="fill:#003fff;opacity:0.4;"/>
   </g>
   <g id="patch_12">
    <path clip-path="url(#p2b8e198c40)" d="M 205.633817 260.834844 
L 216.834294 260.834844 
L 216.834294 203.631471 
L 205.633817 203.631471 
z
" style="fill:#003fff;opacity:0.4;"/>
   </g>
   <g id="patch_13">
    <path clip-path="url(#p2b8e198c40)" d="M 216.834294 260.834844 
L 228.03477 260.834844 
L 228.03477 200.471063 
L 216.834294 200.471063 
z
" style="fill:#003fff;opacity:0.4;"/>
   </g>
   <g id="patch_14">
    <path clip-path="url(#p2b8e198c40)" d="M 228.03477 260.834844 
L 239.235246 260.834844 
L 239.235246 196.046493 
L 228.03477 196.046493 
z
" style="fill:#003fff;opacity:0.4;"/>
   </g>
   <g id="patch_15">
    <path clip-path="url(#p2b8e198c40)" d="M 239.235246 260.834844 
L 250.435723 260.834844 
L 250.435723 171.711356 
L 239.235246 171.711356 
z
" style="fill:#003fff;opacity:0.4;"/>
   </g>
   <g id="patch_16">
    <path clip-path="url(#p2b8e198c40)" d="M 250.435723 260.834844 
L 261.636199 260.834844 
L 261.636199 198.89086 
L 250.435723 198.89086 
z
" style="fill:#003fff;opacity:0.4;"/>
   </g>
   <g id="patch_17">
    <path clip-path="url(#p2b8e198c40)" d="M 261.636199 260.834844 
L 272.836676 260.834844 
L 272.836676 195.098371 
L 261.636199 195.098371 
z
" style="fill:#003fff;opacity:0.4;"/>
   </g>
   <g id="patch_18">
    <path clip-path="url(#p2b8e198c40)" d="M 272.836676 260.834844 
L 284.037152 260.834844 
L 284.037152 256.410273 
L 272.836676 256.410273 
z
" style="fill:#003fff;opacity:0.4;"/>
   </g>
   <g id="patch_19">
    <path clip-path="url(#p2b8e198c40)" d="M 284.037152 260.834844 
L 295.237629 260.834844 
L 295.237629 239.344074 
L 284.037152 239.344074 
z
" style="fill:#003fff;opacity:0.4;"/>
   </g>
   <g id="patch_20">
    <path clip-path="url(#p2b8e198c40)" d="M 295.237629 260.834844 
L 306.438105 260.834844 
L 306.438105 234.287422 
L 295.237629 234.287422 
z
" style="fill:#003fff;opacity:0.4;"/>
   </g>
   <g id="patch_21">
    <path clip-path="url(#p2b8e198c40)" d="M 306.438105 260.834844 
L 317.638581 260.834844 
L 317.638581 238.711992 
L 306.438105 238.711992 
z
" style="fill:#003fff;opacity:0.4;"/>
   </g>
   <g id="patch_22">
    <path clip-path="url(#p2b8e198c40)" d="M 317.638581 260.834844 
L 328.839058 260.834844 
L 328.839058 259.886722 
L 317.638581 259.886722 
z
" style="fill:#003fff;opacity:0.4;"/>
   </g>
   <g id="patch_23">
    <path clip-path="url(#p2b8e198c40)" d="M 328.839058 260.834844 
L 340.039534 260.834844 
L 340.039534 259.570681 
L 328.839058 259.570681 
z
" style="fill:#003fff;opacity:0.4;"/>
   </g>
   <g id="patch_24">
    <path clip-path="url(#p2b8e198c40)" d="M 340.039534 260.834844 
L 351.240011 260.834844 
L 351.240011 259.886722 
L 340.039534 259.886722 
z
" style="fill:#003fff;opacity:0.4;"/>
   </g>
   <g id="patch_25">
    <path clip-path="url(#p2b8e198c40)" d="M 351.240011 260.834844 
L 362.440487 260.834844 
L 362.440487 253.565907 
L 351.240011 253.565907 
z
" style="fill:#003fff;opacity:0.4;"/>
   </g>
   <g id="patch_26">
    <path clip-path="url(#p2b8e198c40)" d="M 362.440487 260.834844 
L 373.640963 260.834844 
L 373.640963 260.518803 
L 362.440487 260.518803 
z
" style="fill:#003fff;opacity:0.4;"/>
   </g>
   <g id="patch_27">
    <path clip-path="url(#p2b8e198c40)" d="M 373.640963 260.834844 
L 384.84144 260.834844 
L 384.84144 259.886722 
L 373.640963 259.886722 
z
" style="fill:#003fff;opacity:0.4;"/>
   </g>
   <g id="patch_28">
    <path clip-path="url(#p2b8e198c40)" d="M 384.84144 260.834844 
L 396.041916 260.834844 
L 396.041916 223.858078 
L 384.84144 223.858078 
z
" style="fill:#003fff;opacity:0.4;"/>
   </g>
   <g id="patch_29">
    <path clip-path="url(#p2b8e198c40)" d="M 396.041916 260.834844 
L 407.242393 260.834844 
L 407.242393 260.518803 
L 396.041916 260.518803 
z
" style="fill:#003fff;opacity:0.4;"/>
   </g>
   <g id="patch_30">
    <path clip-path="url(#p2b8e198c40)" d="M 407.242393 260.834844 
L 418.442869 260.834844 
L 418.442869 258.938599 
L 407.242393 258.938599 
z
" style="fill:#003fff;opacity:0.4;"/>
   </g>
   <g id="patch_31">
    <path clip-path="url(#p2b8e198c40)" d="M 418.442869 260.834844 
L 429.643346 260.834844 
L 429.643346 249.773418 
L 418.442869 249.773418 
z
" style="fill:#003fff;opacity:0.4;"/>
   </g>
   <g id="patch_32">
    <path clip-path="url(#p2b8e198c40)" d="M 429.643346 260.834844 
L 440.843822 260.834844 
L 440.843822 260.834844 
L 429.643346 260.834844 
z
" style="fill:#003fff;opacity:0.4;"/>
   </g>
   <g id="patch_33">
    <path clip-path="url(#p2b8e198c40)" d="M 440.843822 260.834844 
L 452.044298 260.834844 
L 452.044298 260.518803 
L 440.843822 260.518803 
z
" style="fill:#003fff;opacity:0.4;"/>
   </g>
   <g id="patch_34">
    <path clip-path="url(#p2b8e198c40)" d="M 452.044298 260.834844 
L 463.244775 260.834844 
L 463.244775 260.834844 
L 452.044298 260.834844 
z
" style="fill:#003fff;opacity:0.4;"/>
   </g>
   <g id="patch_35">
    <path clip-path="url(#p2b8e198c40)" d="M 463.244775 260.834844 
L 474.445251 260.834844 
L 474.445251 260.834844 
L 463.244775 260.834844 
z
" style="fill:#003fff;opacity:0.4;"/>
   </g>
   <g id="patch_36">
    <path clip-path="url(#p2b8e198c40)" d="M 474.445251 260.834844 
L 485.645728 260.834844 
L 485.645728 260.834844 
L 474.445251 260.834844 
z
" style="fill:#003fff;opacity:0.4;"/>
   </g>
   <g id="patch_37">
    <path clip-path="url(#p2b8e198c40)" d="M 485.645728 260.834844 
L 496.846204 260.834844 
L 496.846204 260.834844 
L 485.645728 260.834844 
z
" style="fill:#003fff;opacity:0.4;"/>
   </g>
   <g id="patch_38">
    <path clip-path="url(#p2b8e198c40)" d="M 496.846204 260.834844 
L 508.04668 260.834844 
L 508.04668 260.202762 
L 496.846204 260.202762 
z
" style="fill:#003fff;opacity:0.4;"/>
   </g>
   <g id="patch_39">
    <path clip-path="url(#p2b8e198c40)" d="M 508.04668 260.834844 
L 519.247157 260.834844 
L 519.247157 260.834844 
L 508.04668 260.834844 
z
" style="fill:#003fff;opacity:0.4;"/>
   </g>
   <g id="patch_40">
    <path clip-path="url(#p2b8e198c40)" d="M 519.247157 260.834844 
L 530.447633 260.834844 
L 530.447633 260.834844 
L 519.247157 260.834844 
z
" style="fill:#003fff;opacity:0.4;"/>
   </g>
   <g id="patch_41">
    <path clip-path="url(#p2b8e198c40)" d="M 530.447633 260.834844 
L 541.64811 260.834844 
L 541.64811 260.834844 
L 530.447633 260.834844 
z
" style="fill:#003fff;opacity:0.4;"/>
   </g>
   <g id="patch_42">
    <path clip-path="url(#p2b8e198c40)" d="M 541.64811 260.834844 
L 552.848586 260.834844 
L 552.848586 260.518803 
L 541.64811 260.518803 
z
" style="fill:#003fff;opacity:0.4;"/>
   </g>
   <g id="patch_43">
    <path clip-path="url(#p2b8e198c40)" d="M 552.848586 260.834844 
L 564.049062 260.834844 
L 564.049062 260.834844 
L 552.848586 260.834844 
z
" style="fill:#003fff;opacity:0.4;"/>
   </g>
   <g id="patch_44">
    <path clip-path="url(#p2b8e198c40)" d="M 564.049062 260.834844 
L 575.249539 260.834844 
L 575.249539 260.834844 
L 564.049062 260.834844 
z
" style="fill:#003fff;opacity:0.4;"/>
   </g>
   <g id="patch_45">
    <path clip-path="url(#p2b8e198c40)" d="M 575.249539 260.834844 
L 586.450015 260.834844 
L 586.450015 260.834844 
L 575.249539 260.834844 
z
" style="fill:#003fff;opacity:0.4;"/>
   </g>
   <g id="patch_46">
    <path clip-path="url(#p2b8e198c40)" d="M 586.450015 260.834844 
L 597.650492 260.834844 
L 597.650492 260.834844 
L 586.450015 260.834844 
z
" style="fill:#003fff;opacity:0.4;"/>
   </g>
   <g id="patch_47">
    <path clip-path="url(#p2b8e198c40)" d="M 597.650492 260.834844 
L 608.850968 260.834844 
L 608.850968 260.834844 
L 597.650492 260.834844 
z
" style="fill:#003fff;opacity:0.4;"/>
   </g>
   <g id="patch_48">
    <path clip-path="url(#p2b8e198c40)" d="M 608.850968 260.834844 
L 620.051445 260.834844 
L 620.051445 260.834844 
L 608.850968 260.834844 
z
" style="fill:#003fff;opacity:0.4;"/>
   </g>
   <g id="patch_49">
    <path clip-path="url(#p2b8e198c40)" d="M 620.051445 260.834844 
L 631.251921 260.834844 
L 631.251921 260.834844 
L 620.051445 260.834844 
z
" style="fill:#003fff;opacity:0.4;"/>
   </g>
   <g id="patch_50">
    <path clip-path="url(#p2b8e198c40)" d="M 631.251921 260.834844 
L 642.452397 260.834844 
L 642.452397 260.834844 
L 631.251921 260.834844 
z
" style="fill:#003fff;opacity:0.4;"/>
   </g>
   <g id="patch_51">
    <path clip-path="url(#p2b8e198c40)" d="M 642.452397 260.834844 
L 653.652874 260.834844 
L 653.652874 260.834844 
L 642.452397 260.834844 
z
" style="fill:#003fff;opacity:0.4;"/>
   </g>
   <g id="patch_52">
    <path clip-path="url(#p2b8e198c40)" d="M 653.652874 260.834844 
L 664.85335 260.834844 
L 664.85335 259.886722 
L 653.652874 259.886722 
z
" style="fill:#003fff;opacity:0.4;"/>
   </g>
   <g id="line2d_31">
    <path clip-path="url(#p2b8e198c40)" d="M 72.831074 260.824805 
L 79.134314 260.771534 
L 85.437554 260.545528 
L 91.740794 259.874053 
L 98.044033 258.504869 
L 104.347273 256.66198 
L 110.650513 255.12442 
L 116.953752 254.144799 
L 123.256992 251.940775 
L 129.560232 244.283342 
L 135.863471 225.721523 
L 142.166711 192.85862 
L 148.469951 148.995115 
L 154.773191 105.133344 
L 161.07643 73.2251 
L 167.37967 57.995628 
L 173.68291 57.610051 
L 179.986149 69.871256 
L 186.289389 92.477196 
L 192.592629 119.782719 
L 198.895869 145.447124 
L 205.199108 166.60707 
L 211.502348 182.45243 
L 217.805588 192.136833 
L 224.108827 195.693328 
L 230.412067 194.157994 
L 236.715307 189.18007 
L 243.018546 184.188784 
L 249.321786 183.729396 
L 255.625026 190.135631 
L 261.928266 202.540266 
L 268.231505 218.136911 
L 274.534745 232.363249 
L 280.837985 240.658773 
L 287.141224 242.193911 
L 293.444464 240.23385 
L 299.747704 238.728478 
L 306.050944 239.751484 
L 312.354183 243.50442 
L 318.657423 248.921386 
L 324.960663 254.075771 
L 331.263902 257.328813 
L 337.567142 258.367044 
L 343.870382 257.976901 
L 350.173621 257.335374 
L 356.476861 257.280696 
L 362.780101 257.498552 
L 369.083341 256.485494 
L 375.38658 252.945372 
L 381.68982 247.904683 
L 387.99306 244.973684 
L 394.296299 246.749258 
L 400.599539 251.486708 
L 406.902779 255.278091 
L 413.206019 256.337588 
L 419.509258 255.806504 
L 423 255.740328 
" style="fill:none;stroke:#003fff;stroke-linecap:round;stroke-width:1.75;"/>
   </g>
   <g id="line2d_32">
    <path clip-path="url(#p2b8e198c40)" d="M 187.283883 260.834844 
L 187.283883 27.549375 
" style="fill:none;stroke:#8172b2;stroke-dasharray:7.4,3.2;stroke-dashoffset:0;stroke-width:2;"/>
   </g>
   <g id="line2d_33">
    <path clip-path="url(#p2b8e198c40)" d="M 205.804215 260.834844 
L 205.804215 27.549375 
" style="fill:none;stroke:#4c72b0;stroke-linecap:round;stroke-width:2;"/>
   </g>
   <g id="patch_53">
    <path d="M 50.542812 260.834844 
L 50.542812 27.549375 
" style="fill:none;"/>
   </g>
   <g id="patch_54">
    <path d="M 409.04 260.834844 
L 409.04 27.549375 
" style="fill:none;"/>
   </g>
   <g id="patch_55">
    <path d="M 50.542812 260.834844 
L 409.04 260.834844 
" style="fill:none;"/>
   </g>
   <g id="patch_56">
    <path d="M 50.542812 27.549375 
L 409.04 27.549375 
" style="fill:none;"/>
   </g>
   <g id="text_17">
    <!-- US Rent -->
    <defs>
     <path d="M 54.6875 71.578125 
L 64.15625 71.578125 
L 64.15625 30.21875 
Q 64.15625 19.4375 61.71875 13.078125 
Q 59.28125 6.734375 52.90625 2.75 
Q 46.53125 -1.21875 36.1875 -1.21875 
Q 26.125 -1.21875 19.71875 2.25 
Q 13.328125 5.71875 10.59375 12.28125 
Q 7.859375 18.84375 7.859375 30.21875 
L 7.859375 71.578125 
L 17.328125 71.578125 
L 17.328125 30.28125 
Q 17.328125 20.953125 19.0625 16.53125 
Q 20.796875 12.109375 25.015625 9.71875 
Q 29.25 7.328125 35.359375 7.328125 
Q 45.796875 7.328125 50.234375 12.0625 
Q 54.6875 16.796875 54.6875 30.28125 
z
" id="ArialMT-55"/>
     <path d="M 4.5 23 
L 13.421875 23.78125 
Q 14.0625 18.40625 16.375 14.96875 
Q 18.703125 11.53125 23.578125 9.40625 
Q 28.46875 7.28125 34.578125 7.28125 
Q 39.984375 7.28125 44.140625 8.890625 
Q 48.296875 10.5 50.3125 13.296875 
Q 52.34375 16.109375 52.34375 19.4375 
Q 52.34375 22.796875 50.390625 25.3125 
Q 48.4375 27.828125 43.953125 29.546875 
Q 41.0625 30.671875 31.203125 33.03125 
Q 21.34375 35.40625 17.390625 37.5 
Q 12.25 40.1875 9.734375 44.15625 
Q 7.234375 48.140625 7.234375 53.078125 
Q 7.234375 58.5 10.296875 63.203125 
Q 13.375 67.921875 19.28125 70.359375 
Q 25.203125 72.796875 32.421875 72.796875 
Q 40.375 72.796875 46.453125 70.234375 
Q 52.546875 67.671875 55.8125 62.6875 
Q 59.078125 57.71875 59.328125 51.421875 
L 50.25 50.734375 
Q 49.515625 57.515625 45.28125 60.984375 
Q 41.0625 64.453125 32.8125 64.453125 
Q 24.21875 64.453125 20.28125 61.296875 
Q 16.359375 58.15625 16.359375 53.71875 
Q 16.359375 49.859375 19.140625 47.359375 
Q 21.875 44.875 33.421875 42.265625 
Q 44.96875 39.65625 49.265625 37.703125 
Q 55.515625 34.8125 58.484375 30.390625 
Q 61.46875 25.984375 61.46875 20.21875 
Q 61.46875 14.5 58.203125 9.4375 
Q 54.9375 4.390625 48.796875 1.578125 
Q 42.671875 -1.21875 35.015625 -1.21875 
Q 25.296875 -1.21875 18.71875 1.609375 
Q 12.15625 4.4375 8.421875 10.125 
Q 4.6875 15.828125 4.5 23 
z
" id="ArialMT-53"/>
    </defs>
    <g style="fill:#262626;" transform="translate(207.116094 21.549375)scale(0.12 -0.12)">
     <use xlink:href="#ArialMT-55"/>
     <use x="72.216797" xlink:href="#ArialMT-53"/>
     <use x="138.916016" xlink:href="#ArialMT-20"/>
     <use x="166.699219" xlink:href="#ArialMT-52"/>
     <use x="238.916016" xlink:href="#ArialMT-65"/>
     <use x="294.53125" xlink:href="#ArialMT-6e"/>
     <use x="350.146484" xlink:href="#ArialMT-74"/>
    </g>
   </g>
   <g id="legend_1">
    <g id="line2d_34">
     <path d="M 339.244687 40.207187 
L 359.244687 40.207187 
" style="fill:none;stroke:#8172b2;stroke-dasharray:7.4,3.2;stroke-dashoffset:0;stroke-width:2;"/>
    </g>
    <g id="line2d_35"/>
    <g id="text_18">
     <!-- Median -->
     <g style="fill:#262626;" transform="translate(367.244687 43.707187)scale(0.1 -0.1)">
      <use xlink:href="#ArialMT-4d"/>
      <use x="83.300781" xlink:href="#ArialMT-65"/>
      <use x="138.916016" xlink:href="#ArialMT-64"/>
      <use x="194.53125" xlink:href="#ArialMT-69"/>
      <use x="216.748047" xlink:href="#ArialMT-61"/>
      <use x="272.363281" xlink:href="#ArialMT-6e"/>
     </g>
    </g>
    <g id="line2d_36">
     <path d="M 339.244687 54.3525 
L 359.244687 54.3525 
" style="fill:none;stroke:#4c72b0;stroke-linecap:round;stroke-width:2;"/>
    </g>
    <g id="line2d_37"/>
    <g id="text_19">
     <!-- Mean -->
     <g style="fill:#262626;" transform="translate(367.244687 57.8525)scale(0.1 -0.1)">
      <use xlink:href="#ArialMT-4d"/>
      <use x="83.300781" xlink:href="#ArialMT-65"/>
      <use x="138.916016" xlink:href="#ArialMT-61"/>
      <use x="194.53125" xlink:href="#ArialMT-6e"/>
     </g>
    </g>
   </g>
  </g>
 </g>
 <defs>
  <clipPath id="p2b8e198c40">
   <rect height="233.285469" width="358.497187" x="50.542812" y="27.549375"/>
  </clipPath>
 </defs>
</svg>
